# xmcd
# 
# Track frame offsets:
#     150
#     30697
#     51560
#     72677
#     90450
#     111430
#     134715
#     157485
#     198820
#     223497
#     247630
#     277007
#     310077
# 
# Disc length: 4629
# 
# Revision: 1
# Processed by: cddbd v1.5.2PL0 Copyright (c) Steve Scherf et al.
# Submitted via: fre:ac v1.0.31
# 
DISCID=d212130d
DTITLE=Janis Joplin - Pearl Legacy Edition Disc  2
DYEAR=2005
DGENRE=Rock/Pop
TTITLE0=Tell Mama [live]
TTITLE1=Half Moon [live]
TTITLE2=Move Over [live]
TTITLE3=Maybe [live]
TTITLE4=Summertime [live]
TTITLE5=Little Girl Blue [live]
TTITLE6=That's Rock 'n' Roll [live]
TTITLE7=Try (Just A Little Bit Harder) [live]
TTITLE8=Kozmic Blues [live]
TTITLE9=Piece Of My Heart [live]
TTITLE10=Cry Baby [live]
TTITLE11=Get It While You Can [live]
TTITLE12=Ball And Chain [live]
EXTD=
EXTT0=
EXTT1=
EXTT2=
EXTT3=
EXTT4=
EXTT5=
EXTT6=
EXTT7=
EXTT8=
EXTT9=
EXTT10=
EXTT11=
EXTT12=
PLAYORDER=
